<svg width="544" height="530" viewBox="0 0 544 530" fill="none" xmlns="http://www.w3.org/2000/svg">
<path fill-rule="evenodd" clip-rule="evenodd" d="M500.617 55.3522C502.644 50.5895 505.278 45.4214 509.026 39.7467C506.493 31.7414 503.758 26.6747 503.15 22.0133C502.644 18.5679 504.163 17.2506 503.657 11.3732C503.251 7.42122 499.908 0.226535 502.542 0.0238672C510.951 -0.584136 510.141 10.5626 511.66 17.656C512.167 19.48 511.66 14.1093 512.471 10.2586C515.409 -3.62415 544.891 3.87455 543.979 13.1973C543.574 26.776 539.319 41.6721 531.011 49.9815C530.201 54.9468 529.086 59.8108 527.668 64.5735C520.272 98.8244 509.736 127.198 487.548 155.369C460.092 178.98 413.184 218.804 381.878 225.289L297.789 310.106C334.971 347.802 279.046 380.127 263.342 403.941C269.522 402.218 275.804 397.557 281.984 395.834C286.745 434.138 274.183 471.936 255.946 509.328C259.29 509.632 262.126 509.531 263.95 508.619C327.98 476.597 361.92 509.429 404.978 513.685L431.117 494.939C443.578 515.813 463.435 524.832 485.623 530H233.354V527.973C199.718 465.856 171.654 386.613 234.671 300.783C210.761 270.889 191.613 238.159 179.252 201.476L204.581 182.425L163.346 201.374C140.247 196.916 105.294 184.654 90.2995 160.841C62.7424 165.907 24.9526 111.592 13.7069 49.9815C5.50051 41.6721 0.434861 28.8027 0.0296085 15.2239C-1.08483 4.48256 29.613 -0.482797 32.6524 14.312C32.9564 16.136 33.0577 17.3519 32.9563 17.9599C33.0239 17.8924 33.0576 17.7911 33.0576 17.656C34.6786 10.5626 33.8682 -0.584136 42.2772 0.0238672C44.9113 0.226535 41.4666 7.52256 41.1627 11.3732C40.6561 17.2506 42.0745 18.5679 41.6692 22.0133C41.0614 26.6747 38.3259 31.7414 35.6918 39.7467C66.491 85.7523 75.6091 83.2189 99.8229 124.158C138.525 118.382 142.678 129.529 160.408 143.107C178.847 134.089 220.588 153.443 242.674 141.993C245.511 140.473 248.247 138.547 250.678 136.521H250.475C250.543 136.048 250.577 135.575 250.577 135.102C250.577 132.569 250.678 130.035 249.868 127.603C247.841 114.936 236.292 113.619 232.34 104.702C231.023 100.648 236.697 91.731 235.582 87.3736C235.582 87.171 229.706 85.1443 229.098 83.523C230.618 78.963 236.494 73.6936 238.318 69.2349C238.014 66.6002 236.494 63.8642 237.811 61.3308C245.308 9.24522 319.774 35.1867 313.897 68.5256C311.77 81.4963 308.933 89.0964 304.779 101.459C302.652 107.336 301.537 116.558 304.475 121.929C319.571 149.289 357.361 131.961 382.993 161.043C400.824 137.027 441.451 122.334 464.753 125.577C474.377 80.3816 487.953 76.835 500.617 55.3522ZM215.219 310.106C200.528 331.994 191.106 356.415 187.256 384.586C174.795 375.263 164.359 371.717 153.62 372.831C180.671 387.221 180.367 439.408 193.74 472.645L206.708 495.04C199.312 502.235 198.806 510.645 201.44 519.563L201.035 529.291H163.346L179.05 514.395L180.266 486.122C164.562 439.509 119.68 404.853 88.5772 361.583C139.74 320.138 149.264 291.561 215.219 310.106ZM293.736 161.55C300.423 200.158 284.111 234.713 293.432 282.543C288.265 242.719 303.969 200.26 293.736 161.55Z" fill="#A7D13C"/>
</svg>
