<svg width="24" height="24" viewBox="0 0 24 24" fill="none" xmlns="http://www.w3.org/2000/svg">
<path d="M12 8V12L15 15M21 12C21 13.1819 20.7672 14.3522 20.3149 15.4441C19.8626 16.5361 19.1997 17.5282 18.3639 18.364C17.5282 19.1997 16.5361 19.8626 15.4441 20.3149C14.3522 20.7672 13.1819 21 12 21C10.8181 21 9.64776 20.7672 8.55583 20.3149C7.4639 19.8626 6.47175 19.1997 5.63602 18.364C4.8003 17.5282 4.13736 16.5361 3.68507 15.4441C3.23278 14.3522 2.99998 13.1819 2.99998 12C2.99998 9.61305 3.9482 7.32387 5.63602 5.63604C7.32385 3.94821 9.61304 3 12 3C14.3869 3 16.6761 3.94821 18.3639 5.63604C20.0518 7.32387 21 9.61305 21 12Z" stroke="#009BBF" stroke-width="2.04493" stroke-linecap="round" stroke-linejoin="round"/>
</svg>
