<svg width="20" height="20" viewBox="0 0 20 20" fill="none" xmlns="http://www.w3.org/2000/svg">
<path d="M6.66747 9.9944C6.66747 8.15455 8.15945 6.66267 10.0004 6.66267C11.8414 6.66267 13.3341 8.15455 13.3341 9.9944C13.3341 11.8343 11.8414 13.3261 10.0004 13.3261C8.15945 13.3261 6.66747 11.8343 6.66747 9.9944ZM4.86531 9.9944C4.86531 12.8288 7.16429 15.1264 10.0004 15.1264C12.8365 15.1264 15.1355 12.8288 15.1355 9.9944C15.1355 7.15999 12.8365 4.8624 10.0004 4.8624C7.16429 4.8624 4.86531 7.15999 4.86531 9.9944ZM14.1387 4.65891C14.1386 4.89612 14.2089 5.12802 14.3407 5.3253C14.4725 5.52258 14.6598 5.67638 14.8791 5.76724C15.0983 5.8581 15.3396 5.88195 15.5724 5.83577C15.8052 5.78959 16.0191 5.67545 16.187 5.50778C16.3549 5.34012 16.4693 5.12647 16.5157 4.89384C16.5621 4.66121 16.5384 4.42006 16.4477 4.20087C16.3569 3.98169 16.2032 3.79432 16.0059 3.66245C15.8086 3.53059 15.5766 3.46016 15.3393 3.46006H15.3388C15.0206 3.46021 14.7156 3.58655 14.4905 3.81133C14.2655 4.03611 14.139 4.34096 14.1387 4.65891ZM5.96024 18.1296C4.98524 18.0852 4.4553 17.9229 4.10312 17.7858C3.63623 17.6041 3.30309 17.3878 2.95284 17.0382C2.60258 16.6887 2.38578 16.356 2.20481 15.8894C2.06752 15.5376 1.90512 15.0078 1.86079 14.0334C1.81231 12.9799 1.80263 12.6635 1.80263 9.99448C1.80263 7.3255 1.81311 7.00992 1.86079 5.95555C1.9052 4.98113 2.0688 4.45239 2.20481 4.09954C2.38658 3.63293 2.60306 3.29999 2.95284 2.94995C3.30261 2.5999 3.63543 2.38323 4.10312 2.20237C4.45514 2.06516 4.98524 1.90285 5.96024 1.85856C7.01436 1.81011 7.33101 1.80043 10.0004 1.80043C12.6698 1.80043 12.9868 1.81091 14.0418 1.85856C15.0168 1.90293 15.5458 2.06644 15.8989 2.20237C16.3658 2.38323 16.6989 2.60038 17.0492 2.94995C17.3994 3.29951 17.6154 3.63293 17.7972 4.09954C17.9345 4.45135 18.0969 4.98113 18.1412 5.95555C18.1897 7.00992 18.1994 7.3255 18.1994 9.99448C18.1994 12.6635 18.1897 12.9791 18.1412 14.0334C18.0968 15.0078 17.9336 15.5375 17.7972 15.8894C17.6154 16.356 17.3989 16.689 17.0492 17.0382C16.6994 17.3875 16.3658 17.6041 15.8989 17.7858C15.5469 17.923 15.0168 18.0853 14.0418 18.1296C12.9876 18.1781 12.671 18.1877 10.0004 18.1877C7.32981 18.1877 7.01404 18.1781 5.96024 18.1296ZM5.87744 0.0605261C4.81283 0.108979 4.08536 0.277685 3.45006 0.524746C2.79211 0.779883 2.23513 1.12217 1.67855 1.67754C1.12196 2.23291 0.780351 2.79044 0.525061 3.44799C0.277851 4.08331 0.109044 4.80995 0.0605624 5.87391C0.0112805 6.93955 0 7.28024 0 9.9944C0 12.7086 0.0112805 13.0493 0.0605624 14.1149C0.109044 15.1789 0.277851 15.9055 0.525061 16.5408C0.780351 17.198 1.12205 17.7561 1.67855 18.3113C2.23505 18.8664 2.79211 19.2082 3.45006 19.4641C4.08656 19.7111 4.81283 19.8798 5.87744 19.9283C6.94428 19.9767 7.28461 19.9888 10.0004 19.9888C12.7162 19.9888 13.0571 19.9775 14.1234 19.9283C15.188 19.8798 15.915 19.7111 16.5507 19.4641C17.2083 19.2082 17.7657 18.8666 18.3223 18.3113C18.8788 17.7559 19.2197 17.198 19.4757 16.5408C19.723 15.9055 19.8926 15.1789 19.9402 14.1149C19.9887 13.0485 20 12.7086 20 9.9944C20 7.28024 19.9887 6.93955 19.9402 5.87391C19.8918 4.80987 19.723 4.08291 19.4757 3.44799C19.2197 2.79084 18.878 2.23379 18.3223 1.67754C17.7666 1.12129 17.2083 0.779883 16.5515 0.524746C15.915 0.277685 15.188 0.108179 14.1242 0.0605261C13.0579 0.0120732 12.717 0 10.0012 0C7.28541 0 6.94428 0.0112737 5.87744 0.0605261Z" fill="url(#paint0_radial_47_73)"/>
<path d="M6.66747 9.9944C6.66747 8.15455 8.15945 6.66267 10.0004 6.66267C11.8414 6.66267 13.3341 8.15455 13.3341 9.9944C13.3341 11.8343 11.8414 13.3261 10.0004 13.3261C8.15945 13.3261 6.66747 11.8343 6.66747 9.9944ZM4.86531 9.9944C4.86531 12.8288 7.16429 15.1264 10.0004 15.1264C12.8365 15.1264 15.1355 12.8288 15.1355 9.9944C15.1355 7.15999 12.8365 4.8624 10.0004 4.8624C7.16429 4.8624 4.86531 7.15999 4.86531 9.9944ZM14.1387 4.65891C14.1386 4.89612 14.2089 5.12802 14.3407 5.3253C14.4725 5.52258 14.6598 5.67638 14.8791 5.76724C15.0983 5.8581 15.3396 5.88195 15.5724 5.83577C15.8052 5.78959 16.0191 5.67545 16.187 5.50778C16.3549 5.34012 16.4693 5.12647 16.5157 4.89384C16.5621 4.66121 16.5384 4.42006 16.4477 4.20087C16.3569 3.98169 16.2032 3.79432 16.0059 3.66245C15.8086 3.53059 15.5766 3.46016 15.3393 3.46006H15.3388C15.0206 3.46021 14.7156 3.58655 14.4905 3.81133C14.2655 4.03611 14.139 4.34096 14.1387 4.65891ZM5.96024 18.1296C4.98524 18.0852 4.4553 17.9229 4.10312 17.7858C3.63623 17.6041 3.30309 17.3878 2.95284 17.0382C2.60258 16.6887 2.38578 16.356 2.20481 15.8894C2.06752 15.5376 1.90512 15.0078 1.86079 14.0334C1.81231 12.9799 1.80263 12.6635 1.80263 9.99448C1.80263 7.3255 1.81311 7.00992 1.86079 5.95555C1.9052 4.98113 2.0688 4.45239 2.20481 4.09954C2.38658 3.63293 2.60306 3.29999 2.95284 2.94995C3.30261 2.5999 3.63543 2.38323 4.10312 2.20237C4.45514 2.06516 4.98524 1.90285 5.96024 1.85856C7.01436 1.81011 7.33101 1.80043 10.0004 1.80043C12.6698 1.80043 12.9868 1.81091 14.0418 1.85856C15.0168 1.90293 15.5458 2.06644 15.8989 2.20237C16.3658 2.38323 16.6989 2.60038 17.0492 2.94995C17.3994 3.29951 17.6154 3.63293 17.7972 4.09954C17.9345 4.45135 18.0969 4.98113 18.1412 5.95555C18.1897 7.00992 18.1994 7.3255 18.1994 9.99448C18.1994 12.6635 18.1897 12.9791 18.1412 14.0334C18.0968 15.0078 17.9336 15.5375 17.7972 15.8894C17.6154 16.356 17.3989 16.689 17.0492 17.0382C16.6994 17.3875 16.3658 17.6041 15.8989 17.7858C15.5469 17.923 15.0168 18.0853 14.0418 18.1296C12.9876 18.1781 12.671 18.1877 10.0004 18.1877C7.32981 18.1877 7.01404 18.1781 5.96024 18.1296ZM5.87744 0.0605261C4.81283 0.108979 4.08536 0.277685 3.45006 0.524746C2.79211 0.779883 2.23513 1.12217 1.67855 1.67754C1.12196 2.23291 0.780351 2.79044 0.525061 3.44799C0.277851 4.08331 0.109044 4.80995 0.0605624 5.87391C0.0112805 6.93955 0 7.28024 0 9.9944C0 12.7086 0.0112805 13.0493 0.0605624 14.1149C0.109044 15.1789 0.277851 15.9055 0.525061 16.5408C0.780351 17.198 1.12205 17.7561 1.67855 18.3113C2.23505 18.8664 2.79211 19.2082 3.45006 19.4641C4.08656 19.7111 4.81283 19.8798 5.87744 19.9283C6.94428 19.9767 7.28461 19.9888 10.0004 19.9888C12.7162 19.9888 13.0571 19.9775 14.1234 19.9283C15.188 19.8798 15.915 19.7111 16.5507 19.4641C17.2083 19.2082 17.7657 18.8666 18.3223 18.3113C18.8788 17.7559 19.2197 17.198 19.4757 16.5408C19.723 15.9055 19.8926 15.1789 19.9402 14.1149C19.9887 13.0485 20 12.7086 20 9.9944C20 7.28024 19.9887 6.93955 19.9402 5.87391C19.8918 4.80987 19.723 4.08291 19.4757 3.44799C19.2197 2.79084 18.878 2.23379 18.3223 1.67754C17.7666 1.12129 17.2083 0.779883 16.5515 0.524746C15.915 0.277685 15.188 0.108179 14.1242 0.0605261C13.0579 0.0120732 12.717 0 10.0012 0C7.28541 0 6.94428 0.0112737 5.87744 0.0605261Z" fill="url(#paint1_radial_47_73)"/>
<defs>
<radialGradient id="paint0_radial_47_73" cx="0" cy="0" r="1" gradientUnits="userSpaceOnUse" gradientTransform="translate(2.65723 20.0832) scale(26.1094 26.0937)">
<stop offset="0.09" stop-color="#FA8F21"/>
<stop offset="0.78" stop-color="#D82D7E"/>
</radialGradient>
<radialGradient id="paint1_radial_47_73" cx="0" cy="0" r="1" gradientUnits="userSpaceOnUse" gradientTransform="translate(12.1296 20.9787) scale(20.5778 20.5654)">
<stop offset="0.64" stop-color="#8C3AAA" stop-opacity="0"/>
<stop offset="1" stop-color="#8C3AAA"/>
</radialGradient>
</defs>
</svg>
