<svg width="21" height="16" viewBox="0 0 21 16" fill="none" xmlns="http://www.w3.org/2000/svg">
<path d="M0 15.5455V11.4545C0 10.2121 0.219697 8.89394 0.659091 7.5C1.11364 6.09091 1.76515 4.73485 2.61364 3.43182C3.47727 2.11364 4.51515 0.969696 5.72727 0L8.63636 2.36364C7.68182 3.72727 6.84849 5.15152 6.13636 6.63636C5.43939 8.10606 5.09091 9.68182 5.09091 11.3636V15.5455H0ZM11.6364 15.5455V11.4545C11.6364 10.2121 11.8561 8.89394 12.2955 7.5C12.75 6.09091 13.4015 4.73485 14.25 3.43182C15.1136 2.11364 16.1515 0.969696 17.3636 0L20.2727 2.36364C19.3182 3.72727 18.4848 5.15152 17.7727 6.63636C17.0758 8.10606 16.7273 9.68182 16.7273 11.3636V15.5455H11.6364Z" fill="#009BBF"/>
</svg>
