<svg width="33" height="75" viewBox="0 0 33 75" fill="none" xmlns="http://www.w3.org/2000/svg">
<path d="M13.7833 18.7004C17.9738 19.9213 22.1185 18.712 27.2674 16.6496C28.0282 16.3496 28.3598 16.7987 28.2811 17.3827C27.9443 19.6968 28.6121 21.9495 29.4323 24.0209C29.7059 24.7011 29.4059 24.914 28.9335 25.1928C27.8797 25.8239 25.8387 26.4672 23.8853 26.9111C21.93 27.357 19.9451 27.528 19.1417 27.3512C18.3274 27.1693 17.744 26.6659 16.8225 25.9639C15.6571 25.0759 14.371 24.7275 13.2464 25.1024C12.1229 25.4767 11.3622 26.4775 10.9374 27.6991C10.7071 28.3683 10.0605 28.8606 9.16539 28.849C8.26714 28.84 7.04181 28.3031 5.85636 26.5156C5.65373 26.2001 5.49371 25.9162 5.38143 25.6593C4.60965 23.8808 6.06093 23.544 6.98176 24.1022C8.29817 24.905 9.89399 24.8785 11.0768 24.0919C12.2538 23.3046 12.8378 21.7412 12.5552 19.922C12.3751 18.7431 13.0811 18.4985 13.7832 18.7005L13.7833 18.7004ZM11.4112 17.4485C10.695 18.1558 10.4368 19.2308 10.6504 20.313C10.8918 21.5126 10.5181 22.1282 9.99803 22.4754C9.47404 22.8239 8.7068 22.8826 7.99058 22.4444C6.63093 21.6243 4.93446 21.5933 3.88398 22.6697C3.36517 23.204 3.09737 24.0009 3.16576 24.8487C3.23029 25.6947 3.5839 26.593 4.2376 27.5847C5.67273 29.7522 7.48154 30.775 9.14704 30.7898C10.8163 30.8111 12.2678 29.8064 12.7762 28.3345C13.0711 27.4814 13.4835 27.0807 13.8629 26.953C14.2481 26.8245 14.8005 26.8716 15.6452 27.515C16.5073 28.1667 17.3753 28.9501 18.7239 29.2482C20.2339 29.5812 22.2363 29.2876 24.3237 28.8101C26.4055 28.3339 28.4723 27.6434 29.8487 26.9084C30.5075 26.5567 31.0535 26.052 31.3167 25.3777C31.5839 24.7034 31.5142 23.9368 31.2199 23.2521C30.4159 21.395 29.941 19.4688 30.2023 17.6684C30.3423 16.7269 30.0094 15.7842 29.3092 15.1802C28.6071 14.5801 27.5101 14.4194 26.5145 14.8627C21.476 16.8715 17.8579 17.8556 14.3286 16.8335C13.2426 16.516 12.1243 16.7464 11.4113 17.4485L11.4112 17.4485Z" fill="#9FC63B"/>
<path d="M16.4148 32.1919C20.3602 34.071 24.6495 33.5354 30.057 32.3306C30.8546 32.1557 31.1108 32.6475 30.9346 33.2095C30.2377 35.4423 30.5326 37.7763 31.0146 39.9503C31.1746 40.6679 30.8378 40.8279 30.3351 41.0318C29.1891 41.4822 27.0745 41.7862 25.0715 41.9159C23.0756 42.0424 21.0895 41.8946 20.3228 41.5881C19.5478 41.2841 19.0541 40.695 18.2507 39.8491C17.2447 38.7882 16.0297 38.2384 14.8629 38.4313C13.6949 38.6172 12.7857 39.4851 12.1701 40.6195C11.8377 41.2455 11.1208 41.6268 10.2323 41.4758C9.34826 41.3216 8.22998 40.5937 7.34585 38.6391C7.19034 38.2971 7.0787 37.9906 7.009 37.7183C6.53729 35.8392 8.02018 35.7386 8.8397 36.4393C10.0122 37.4401 11.5912 37.6699 12.8812 37.0807C14.1724 36.4928 15.0017 35.0415 15.0132 33.2044C15.019 32.0048 15.7631 31.8764 16.4148 32.1919L16.4148 32.1919ZM14.275 30.5761C13.4549 31.1601 13.0283 32.1829 13.0703 33.2792C13.1187 34.5046 12.647 35.0524 12.0791 35.313C11.5067 35.5699 10.742 35.506 10.0994 34.9594C8.88948 33.9315 7.21823 33.6275 6.01461 34.5206C5.41449 34.9646 5.02344 35.7151 4.95374 36.5598C4.88405 37.4071 5.08732 38.3485 5.57452 39.4294C6.64636 41.8015 8.26869 43.0966 9.90512 43.3857C11.5506 43.6683 13.1451 42.9088 13.884 41.5388C14.3118 40.7464 14.7771 40.414 15.1791 40.3444C15.576 40.2798 16.1167 40.4205 16.8491 41.189C17.5879 41.9724 18.3223 42.8816 19.607 43.3921C21.0409 43.9645 23.0697 43.9903 25.2057 43.8515C27.3363 43.7167 29.4892 43.3631 30.9617 42.8604C31.667 42.6197 32.2884 42.2118 32.6576 41.5859C33.0274 40.9651 33.0809 40.1953 32.8983 39.4712C32.3995 37.5134 32.2459 35.531 32.7912 33.8024C33.0751 32.8867 32.9035 31.9071 32.3091 31.1999C31.7097 30.4991 30.6488 30.161 29.5956 30.4404C24.2996 31.6123 20.5751 32.0078 17.2557 30.4352C16.2355 29.9487 15.094 29.9971 14.2751 30.5759L14.275 30.5761Z" fill="#9FC63B"/>
<path d="M10.1407 5.18279C14.4178 6.07072 18.456 4.53491 23.4292 2.07762C24.1571 1.72012 24.5249 2.13698 24.4888 2.7255C24.3384 5.05954 25.1792 7.25549 26.1652 9.2527C26.4859 9.91026 26.202 10.1522 25.758 10.4613C24.7559 11.1796 22.7709 11.9778 20.8603 12.576C18.9483 13.171 16.9833 13.4968 16.1651 13.3852C15.3456 13.2671 14.7196 12.8128 13.7453 12.1856C12.5147 11.3932 11.2021 11.1467 10.1161 11.6068C9.02366 12.0675 8.34293 13.1277 8.02146 14.3751C7.84077 15.0604 7.23485 15.6057 6.34109 15.6638C5.44156 15.7231 4.1838 15.2843 2.86042 13.5937C2.63006 13.2988 2.44808 13.0304 2.31386 12.7793C1.41044 11.0719 2.82752 10.6169 3.78772 11.1029C5.16219 11.7986 6.75925 11.6443 7.87184 10.7661C8.98627 9.88849 9.44571 8.28816 9.01789 6.4943C8.74494 5.33342 9.43088 5.034 10.1407 5.18306V5.18279ZM7.6783 4.12321C7.02074 4.87885 6.8491 5.97654 7.14981 7.03544C7.48602 8.2144 7.16013 8.85706 6.66648 9.24229C6.17411 9.63205 5.41332 9.75014 4.6577 9.37071C3.23999 8.6583 1.54228 8.75897 0.590426 9.91017C0.108385 10.489 -0.0910052 11.3079 0.0387063 12.1429C0.172282 12.9825 0.594954 13.8504 1.32994 14.7881C2.93027 16.8388 4.80929 17.7112 6.47429 17.597C8.13715 17.4848 9.50266 16.3716 9.90012 14.8611C10.1253 13.9893 10.4996 13.5556 10.8732 13.4008C11.243 13.2414 11.8005 13.2466 12.6948 13.8189C13.5995 14.401 14.5293 15.114 15.8968 15.3076C17.4281 15.5212 19.4028 15.0669 21.4477 14.4287C23.4882 13.786 25.4912 12.9355 26.8063 12.0953C27.4323 11.6933 27.9369 11.1519 28.1505 10.4569C28.3582 9.76646 28.2318 9.00566 27.8833 8.34226C26.9347 6.55997 26.3088 4.67509 26.432 2.86042C26.4908 1.90668 26.09 0.991726 25.3447 0.450876C24.5955 -0.0969786 23.4876 -0.164742 22.528 0.353437C17.6669 2.75141 14.1334 4.02061 10.5358 3.27789C9.4362 3.04688 8.33785 3.36372 7.67839 4.12323L7.6783 4.12321Z" fill="#9FC63B"/>
<path d="M12.3692 61.2201C15.8015 63.9285 20.0998 64.3569 25.641 64.3828C26.4605 64.388 26.5993 64.9294 26.3037 65.4372C25.1267 67.4608 24.8963 69.7936 24.886 72.0206C24.8808 72.7556 24.5169 72.8407 23.9813 72.9272C22.7604 73.1143 20.6303 72.9427 18.6551 72.6207C16.6792 72.3038 14.7736 71.716 14.0935 71.2507C13.4082 70.779 13.0546 70.0944 12.4609 69.0934C11.7169 67.83 10.656 67.0265 9.47254 66.951C8.29037 66.8813 7.20821 67.5247 6.36092 68.4926C5.89631 69.0282 5.10777 69.2418 4.28441 68.8946C3.45393 68.5526 2.52343 67.5931 2.09491 65.4901C2.02522 65.1204 1.98263 64.7984 1.97037 64.5145C1.92842 62.5831 3.39518 62.8134 4.0373 63.6756C4.95813 64.9171 6.45196 65.4907 7.83943 65.1998C9.23134 64.9107 10.3554 63.6833 10.7768 61.8921C11.053 60.7318 11.8028 60.7686 12.3694 61.2203L12.3692 61.2201ZM10.6411 59.1694C9.71508 59.5546 9.07237 60.4593 8.86903 61.5408C8.63867 62.7455 8.05984 63.1734 7.44873 63.2966C6.83376 63.425 6.10006 63.1947 5.59739 62.5152C4.64558 61.2465 3.08146 60.5768 1.71083 61.182C1.02554 61.4814 0.480258 62.1248 0.22214 62.9327C-0.0346889 63.7394 -0.0398428 64.7059 0.194393 65.8714C0.708052 68.4197 1.99932 70.0477 3.54092 70.6898C5.07737 71.3325 6.80155 70.9466 7.82444 69.769C8.41877 69.0959 8.94919 68.8759 9.34992 68.8966C9.75194 68.923 10.2495 69.1753 10.7954 70.0897C11.3413 71.0157 11.855 72.0714 12.9951 72.8529C14.2644 73.7267 16.2409 74.2023 18.3491 74.5449C20.4644 74.8811 22.6364 75.0211 24.1832 74.8565C24.9272 74.7752 25.6183 74.5197 26.1216 73.988C26.6204 73.4627 26.8449 72.7245 26.8236 71.9805C26.7752 69.9627 27.0643 67.9925 27.98 66.4225C28.4608 65.5991 28.5117 64.6021 28.0871 63.7852C27.6593 62.9657 26.6997 62.4036 25.613 62.441C20.19 62.4101 16.466 61.9648 13.5782 59.6933C12.6915 58.9977 11.5661 58.7893 10.6408 59.1694L10.6411 59.1694Z" fill="#9FC63B"/>
<path d="M15.3031 46.5673C18.9058 49.0465 23.2196 49.1955 28.751 48.8587C29.5653 48.8103 29.7421 49.342 29.4795 49.8699C28.4354 51.9639 28.3593 54.3146 28.4935 56.5359C28.5367 57.2696 28.1766 57.3754 27.6488 57.4941C26.4492 57.7626 24.3081 57.7297 22.3161 57.5374C20.3189 57.3483 18.3812 56.885 17.6745 56.4662C16.9633 56.0377 16.5613 55.3788 15.9077 54.4219C15.0785 53.2113 13.9693 52.4782 12.787 52.4782C11.6048 52.4846 10.5659 53.1944 9.7844 54.2172C9.34947 54.7786 8.5848 55.0477 7.733 54.7528C6.88186 54.4637 5.8919 53.5706 5.33056 51.4986C5.23312 51.1347 5.16794 50.8191 5.14278 50.5345C4.97113 48.6064 6.45466 48.7407 7.15156 49.5614C8.15177 50.7385 9.67724 51.2154 11.0434 50.834C12.4134 50.4597 13.4567 49.1594 13.7633 47.3442C13.9543 46.1659 14.7081 46.1536 15.303 46.5673L15.3031 46.5673ZM13.4446 44.6333C12.5451 45.0786 11.9572 46.0207 11.8288 47.1126C11.6778 48.3277 11.1319 48.793 10.5272 48.9595C9.92195 49.124 9.17793 48.9433 8.62552 48.3006C7.59756 47.0959 5.99081 46.5274 4.66413 47.2191C3.99495 47.5676 3.49744 48.2406 3.29416 49.0653C3.09153 49.8907 3.14381 50.8541 3.4542 51.9989C4.13434 54.509 5.53136 56.0468 7.10534 56.5875C8.67986 57.127 10.377 56.6295 11.3249 55.3944C11.8696 54.6768 12.3839 54.4258 12.7904 54.4258C13.1924 54.4258 13.7061 54.6445 14.3043 55.5163C14.916 56.4113 15.4948 57.4232 16.6828 58.1304C18.0056 58.9228 20.0067 59.2706 22.1375 59.4739C24.2631 59.6784 26.4423 59.6668 27.978 59.4042C28.7117 59.2777 29.3854 58.9712 29.852 58.4156C30.3179 57.8574 30.4947 57.1089 30.4243 56.3648C30.2475 54.3514 30.403 52.3717 31.2168 50.7482C31.6453 49.8919 31.6291 48.8949 31.1522 48.1031C30.6721 47.3107 29.6803 46.8131 28.5937 46.9254C23.1809 47.2474 19.4344 47.0429 16.4092 44.9664C15.48 44.323 14.3449 44.1907 13.4448 44.6334L13.4446 44.6333Z" fill="#9FC63B"/>
</svg>
