<svg width="45" height="53" viewBox="0 0 45 53" fill="none" xmlns="http://www.w3.org/2000/svg">
<path d="M26.4701 6.17649C22.4921 6.17649 18.6767 7.75685 15.8638 10.5697C13.0509 13.3829 11.4706 17.1982 11.4706 21.1759C11.4706 25.1536 13.051 28.9693 15.8638 31.7822C18.677 34.5951 22.4924 36.1754 26.4701 36.1754C30.4478 36.1754 34.2635 34.595 37.0764 31.7822C39.8893 28.969 41.4695 25.1536 41.4695 21.1759C41.4652 17.199 39.8833 13.3865 37.0712 10.5747C34.2591 7.76259 30.4466 6.18073 26.47 6.17639L26.4701 6.17649ZM30.8818 8.71321V13.3148C30.8818 13.7453 31.193 14.1133 31.6176 14.1845C32.9773 14.4055 34.1535 15.2532 34.7929 16.4731C35.4326 17.693 35.4605 19.143 34.8693 20.3866L32.6465 18.1642V15.8823H30.8818V17.647H29.1171V19.4117H31.399L33.7877 21.8003L34.2828 21.3052H34.2824C33.404 22.3971 32.0569 23.0029 30.6573 22.936C29.2578 22.8686 27.9748 22.1363 27.2052 20.9657C27.0323 20.7333 26.7597 20.5966 26.4702 20.5966C26.1807 20.5966 25.9081 20.7333 25.7351 20.9657C24.9158 22.2072 23.5262 22.9521 22.0388 22.9474C20.551 22.9426 19.1661 22.1883 18.355 20.9416C17.544 19.6949 17.4156 18.1232 18.0139 16.7611C18.6122 15.3993 19.8565 14.4308 21.3235 14.1845C21.7481 14.1128 22.0585 13.7449 22.0585 13.3148V8.71319C24.9095 7.68392 28.0309 7.68392 30.8819 8.71319L30.8818 8.71321ZM17.8846 31.2347C18.238 30.1864 18.9726 29.3096 19.9424 28.7783C20.9121 28.2465 22.0466 28.0992 23.1204 28.3655C24.1938 28.6314 25.1281 29.2916 25.7375 30.2149C25.9104 30.4469 26.183 30.5836 26.4725 30.5836C26.762 30.5836 27.0342 30.4469 27.2075 30.2149C27.8142 29.2983 28.7414 28.6413 29.8073 28.3726C30.8732 28.1039 32.0009 28.2426 32.9699 28.7621C33.9389 29.2813 34.6786 30.1435 35.0454 31.18L35.1628 31.1386H35.1624C32.778 33.2345 29.7162 34.3985 26.5414 34.4163C23.3666 34.434 20.2921 33.3043 17.8846 31.2347L17.8846 31.2347ZM36.3997 29.9013C35.5146 28.1102 33.8157 26.8595 31.8427 26.546C29.8697 26.2321 27.867 26.8946 26.4699 28.3229C25.0724 26.8962 23.0713 26.2332 21.0982 26.5436C19.1256 26.8536 17.4242 28.0988 16.5321 29.8855C13.8555 26.8481 12.721 22.7499 13.4549 18.769C14.1887 14.7875 16.7096 11.3633 20.2934 9.47999V12.6174C18.4597 13.161 16.9814 14.5235 16.2906 16.3067C15.5993 18.09 15.773 20.0925 16.7613 21.7299C17.7492 23.3674 19.4402 24.4549 21.34 24.6744C23.2398 24.8942 25.1341 24.2214 26.4698 22.8526C27.8055 24.2214 29.6998 24.8942 31.5996 24.6744C33.4994 24.4549 35.1904 23.3674 36.1783 21.7299C37.1666 20.0925 37.3403 18.0899 36.649 16.3067C35.9581 14.5235 34.4798 13.161 32.6462 12.6174V9.47999C36.2326 11.3641 38.7548 14.7914 39.4871 18.7758C40.2198 22.7605 39.0814 26.8607 36.3997 29.8973V29.9013Z" fill="#9FC63B"/>
<path d="M32.6465 3.72793V0.882344C32.6465 0.648367 32.5535 0.423838 32.3881 0.258401C32.2226 0.0929638 31.9981 0 31.7641 0H21.176C20.6887 0 20.2937 0.395088 20.2937 0.882344V3.72793C16.7072 4.98882 13.5965 7.32467 11.3859 10.4176C9.17492 13.5101 7.9716 17.2093 7.93923 21.0108C7.90686 24.8122 9.04725 28.5312 11.2055 31.6614L0.258401 42.6116C0.0929638 42.777 0 43.0015 0 43.2355V50.2943C0 50.6511 0.214677 50.973 0.544371 51.1096C0.651513 51.1542 0.76653 51.177 0.882344 51.1766C1.11632 51.1766 1.34085 51.0836 1.50629 50.9182L15.9858 36.4417C17.3203 37.3548 18.7688 38.089 20.2944 38.6255V52.0593C20.2944 52.2933 20.3873 52.5178 20.5528 52.6832C20.7182 52.8487 20.9427 52.9416 21.1767 52.9416H31.7648C31.9988 52.9416 32.2233 52.8487 32.3888 52.6832C32.5542 52.5178 32.6472 52.2933 32.6472 52.0593V38.6255C36.2588 37.3532 39.3869 34.9917 41.5994 31.8665C43.8119 28.7413 45 25.0063 45 21.1776C45 17.3488 43.812 13.6134 41.5994 10.4886C39.3869 7.36338 36.2588 5.00193 32.6472 3.72964L32.6465 3.72793ZM22.0583 1.76469H30.8818V3.20004C27.987 2.46265 24.9531 2.46265 22.0583 3.20004V1.76469ZM1.76444 48.1639V43.6001L12.287 33.0775C12.9807 33.9024 13.744 34.6657 14.5689 35.3594L1.76444 48.1639ZM30.8818 51.1761H22.0583V39.153C24.9531 39.8904 27.987 39.8904 30.8818 39.153V51.1761ZM26.4701 37.9409C22.8048 37.9401 19.2419 36.7308 16.3337 34.4998L13.1486 31.3146H13.1482C10.8667 28.3056 9.66884 24.6132 9.75001 20.8374C9.83116 17.0622 11.1862 13.4249 13.5953 10.5165C16.0045 7.60792 19.3258 5.59981 23.0203 4.81709C26.7147 4.0348 30.5651 4.52404 33.9462 6.20595C37.3273 7.88787 40.041 10.6634 41.6458 14.0817C43.2505 17.5004 43.6527 21.3607 42.7865 25.0369C41.9207 28.7128 39.8373 31.9877 36.8752 34.3302C33.9134 36.6727 30.2462 37.9451 26.4696 37.9408L26.4701 37.9409Z" fill="#9FC63B"/>
</svg>
