<svg width="54" height="57" viewBox="0 0 54 57" fill="none" xmlns="http://www.w3.org/2000/svg">
<path d="M52.3492 49.1348H49.4361V32.1423L54 27.5784L52.6405 26.219L42.9302 35.9293L44.2897 37.2887L47.4941 34.0843V49.1348H3.79769C3.21507 49.1348 2.82666 49.5232 2.82666 50.1058V56.0291C2.82666 56.6117 3.21507 57.0001 3.79769 57.0001H52.3492C52.9318 57.0001 53.3203 56.6117 53.3203 56.0291V50.1058C53.3203 49.5232 52.9318 49.1348 52.3492 49.1348ZM51.3782 55.058H4.76872V51.0768H51.3782V55.058Z" fill="#9FC63B"/>
<path d="M11.566 45.3471C11.6631 45.3471 13.8965 45.3471 16.1298 43.1138L22.6357 36.6079H24.772L32.0547 44.1819C32.6373 44.7645 33.7055 45.3471 34.8707 45.3471C35.7446 45.3471 36.7157 45.0558 37.5896 44.1819C38.6577 43.1138 39.0461 41.7543 38.5606 40.3949C38.2693 39.4238 37.5896 38.8412 37.5896 38.7441L29.4329 30.5875C29.3358 30.4904 28.0735 29.3251 25.6459 29.0338L28.559 22.8192L31.2779 25.8294C32.346 26.8975 33.9968 26.9947 34.5794 26.9947H34.7736H38.7548C39.9201 26.9947 41.6679 26.2178 41.6679 24.0816C41.6679 21.9453 39.9201 21.1685 38.7548 21.1685H35.3562L30.404 14.6626C33.9968 14.177 36.8128 11.0697 36.8128 7.37983C36.8128 3.3015 33.5113 0 29.4329 0C25.3546 0 22.0531 3.3015 22.0531 7.37983C22.0531 8.54507 22.3444 9.6132 22.7328 10.5842H14.382C14.2849 10.5842 13.2167 10.6813 12.2457 11.1669C11.4689 11.5553 10.5949 12.3321 10.4978 12.4292L5.35138 18.1583C4.67166 18.838 4.28325 19.7119 4.28325 20.683C4.28325 22.625 5.8369 24.1787 7.77896 24.1787C8.84709 24.1787 9.91523 23.6931 10.4978 22.8192L14.9646 17.3814H17.7806L12.2457 28.0628C11.8573 28.9367 11.6631 29.8106 11.6631 30.7817C11.6631 34.0832 14.6733 36.8021 18.4603 36.8021H20.0139L14.8675 41.9485C13.1196 43.308 11.6631 43.4051 11.566 43.4051H4.76877C4.47746 43.4051 2.8267 43.308 2.8267 41.463C2.8267 39.7152 4.28325 39.5209 4.76877 39.5209H11.566C11.8573 39.5209 12.0515 39.4238 12.2457 39.2296L13.2167 38.2586L11.8573 36.8992L11.1776 37.5789H4.76877C3.21512 37.5789 0.884644 38.647 0.884644 41.463C0.884644 44.279 3.21512 45.3471 4.76877 45.3471H11.566ZM34.8707 23.0134H38.7548C39.2404 23.0134 39.7259 23.2076 39.7259 23.9845C39.7259 24.7613 39.1432 24.9555 38.7548 24.9555H34.6765C34.2881 24.9555 33.22 24.9555 32.6373 24.3729L29.4329 20.7801L30.5011 18.5467C30.5982 18.3525 30.5982 18.1583 30.6953 17.9641L34.0939 22.5279C34.2881 22.9163 34.5794 23.0134 34.8707 23.0134ZM29.4329 1.74841C32.4431 1.74841 34.8707 4.17599 34.8707 7.18618C34.8707 10.1964 32.4431 12.624 29.4329 12.624C26.4227 12.624 23.9952 10.1964 23.9952 7.18618C23.9952 4.17599 26.4227 1.74841 29.4329 1.74841ZM13.508 30.5886C13.508 29.9089 13.6051 29.3262 13.8965 28.7436L19.9168 17.1889H23.2183V15.2468H14.4791C14.1878 15.2468 13.8965 15.3439 13.7022 15.6353L8.84709 21.4614C8.65289 21.7528 8.16737 22.0441 7.68186 22.0441C6.80793 22.0441 6.12821 21.3643 6.12821 20.4904C6.12821 20.102 6.32241 19.7136 6.71083 19.3252L11.8573 13.5961C12.0515 13.4019 12.6341 12.9164 13.0225 12.7222C13.7022 12.4309 14.4791 12.3338 14.4791 12.3338H24.0923C24.8691 13.1106 25.743 13.6932 26.8112 14.1787V14.2758C27.7822 14.5671 28.3648 15.1497 28.6561 15.8295C28.9474 16.6063 28.8503 17.3831 28.6561 17.8686L23.5097 28.8413H19.3342V30.7833H24.6749C26.9083 30.7833 28.0735 31.8515 28.0735 31.8515L36.2302 40.0081C36.2302 40.0081 36.6186 40.3965 36.8128 40.8821C37.007 41.5618 36.9099 42.1444 36.2302 42.727C34.9678 43.9894 33.8026 43.0183 33.5113 42.727L25.9372 34.8617C25.6459 34.7646 25.4517 34.6675 25.1604 34.6675H18.3632C16.0327 34.6675 13.508 33.0167 13.508 30.5891V30.5886Z" fill="#9FC63B"/>
</svg>
