<svg width="48" height="48" viewBox="0 0 48 48" fill="none" xmlns="http://www.w3.org/2000/svg">
<path d="M47.7125 7.83999L40.1575 0.282666C39.7781 -0.094222 39.1656 -0.094222 38.7862 0.282666L36.4527 2.6074L35.6653 1.79022C35.2859 1.41333 34.6734 1.41333 34.2944 1.79022L31.9609 4.12451L30.3466 2.5492C29.9676 2.17187 29.3547 2.17187 28.9758 2.5492L25.942 5.52519C25.5648 5.9047 25.5648 6.51736 25.942 6.89642L32.8064 13.7629L13.8077 32.8263L6.94292 25.9498C6.75931 25.7535 6.50234 25.6419 6.23321 25.6419C5.96452 25.6419 5.70755 25.7535 5.52351 25.9498L2.54842 28.9845C2.17121 29.3636 2.17121 29.9766 2.54842 30.3557L4.12369 31.9315L1.79012 34.2658H1.78968C1.41291 34.6453 1.41291 35.2579 1.78968 35.637L2.61616 36.4637L0.28258 38.798C-0.0941932 39.1775 -0.0941932 39.7902 0.28258 40.1697L7.82759 47.717H7.82802C8.20697 48.0943 8.81988 48.0943 9.19883 47.717L11.5324 45.3827L12.3589 46.2094C12.7383 46.5868 13.3507 46.5868 13.7301 46.2094L16.0637 43.8752L17.639 45.4509H17.6386C18.0179 45.8282 18.6304 45.8282 19.0098 45.4509L22.0531 42.4844C22.4303 42.1049 22.4303 41.4922 22.0531 41.1131L15.1887 34.2466L34.1874 15.1833L41.0522 22.0598C41.2358 22.256 41.4928 22.3676 41.7619 22.3676C42.0306 22.3676 42.2876 22.256 42.4716 22.0598L45.4954 19.0351C45.8726 18.6556 45.8726 18.0429 45.4954 17.6634L43.9201 16.0876L46.2537 13.7534H46.2541C46.6309 13.3743 46.6309 12.7616 46.2541 12.3821L45.3886 11.5458L47.7222 9.21155C48.0963 8.82945 48.092 8.21679 47.7126 7.83988L47.7125 7.83999ZM8.51841 45.6655L2.34421 39.4894L3.9876 37.8455L10.1618 44.0216L8.51841 45.6655ZM13.0492 44.158L12.2323 43.3408L4.67772 35.7739L3.86079 34.9568L5.52374 33.3133L14.6927 42.4851L13.0492 44.158ZM18.3389 43.3994L16.7636 41.8237L6.18483 31.2512L4.60955 29.6755L6.25295 28.0316L19.9822 41.765L18.3389 43.3994ZM41.7424 19.9887L28.0132 6.25532L29.6566 4.61142L31.2319 6.18718L41.8102 16.7592L43.3855 18.3349L41.7424 19.9887ZM42.4717 14.6974L33.3027 5.52568L34.9461 3.88179L44.1251 13.0636L42.4717 14.6974ZM43.9787 10.1653L37.8045 3.98917L39.4479 2.34527L45.6221 8.52136L43.9787 10.1653Z" fill="#9FC63B"/>
</svg>
