<svg width="54" height="64" viewBox="0 0 54 64" fill="none" xmlns="http://www.w3.org/2000/svg">
<path d="M25.6584 15.4492C25.3746 15.4131 25.0878 15.4913 24.8616 15.6663C24.6355 15.8418 24.4881 16.0996 24.452 16.3839C24.3988 16.8021 23.1657 26.7359 24.9604 35.3096C26.4156 42.2643 26.3699 43.8895 26.353 44.1071V44.1076C26.2086 44.6451 26.4974 45.2037 27.0189 45.3978C27.5404 45.5914 28.1241 45.3562 28.3658 44.8552C28.5197 44.5474 28.9289 43.7295 27.0721 34.8683C25.3531 26.6566 26.5802 16.7526 26.5927 16.6563H26.5922C26.6288 16.3725 26.5506 16.0857 26.3756 15.8595C26.2005 15.6329 25.9423 15.4854 25.6585 15.4493L25.6584 15.4492Z" fill="#9FC63B"/>
<path d="M27.4479 50.1058H27.4359C26.8452 50.1053 26.3643 50.5807 26.3573 51.1719C26.3573 51.217 26.2926 55.716 25.2741 57.9461V57.9456C25.0264 58.4876 25.2651 59.1275 25.8067 59.3747C26.3487 59.6224 26.9886 59.3838 27.2358 58.8422C28.4453 56.199 28.512 51.3996 28.514 51.1986C28.518 50.9122 28.4077 50.636 28.2076 50.4309C28.0076 50.2258 27.7343 50.1089 27.4479 50.1059L27.4479 50.1058Z" fill="#9FC63B"/>
<path d="M43.4815 26.1222C42.9118 25.9497 42.3101 26.2717 42.1371 26.8413C41.9345 27.5107 37.2374 43.4513 43.4604 62.5182C43.6455 63.0844 44.2542 63.3938 44.8204 63.2087C45.3865 63.0237 45.6954 62.4149 45.5109 61.8488C41.9025 50.7302 41.4486 38.828 44.2011 27.4658C44.3736 26.8962 44.0512 26.2939 43.4815 26.1214L43.4815 26.1222Z" fill="#9FC63B"/>
<path d="M12.227 26.6022C11.9206 26.0952 11.2632 25.9302 10.7536 26.2316C10.2447 26.5335 10.0737 27.1899 10.371 27.7013C10.4427 27.8257 17.6214 40.2817 10.9682 54.3628C10.696 54.9906 8.29697 60.5336 7.89491 61.873H7.89541C7.72442 62.4437 8.04835 63.0449 8.6185 63.2159C9.18915 63.3869 9.79039 63.0635 9.96139 62.4928C10.2703 61.4628 12.221 56.8941 12.9325 55.2529C15.0527 50.752 16.0921 45.8181 15.9698 40.8445C15.8475 35.8707 14.5657 30.9946 12.227 26.603L12.227 26.6022Z" fill="#9FC63B"/>
<path d="M7.09852 12.5149C5.13328 12.9457 3.40438 14.1061 2.26046 15.7613C0.52745 18.1908 -0.251763 21.1729 0.0716047 24.1396C0.0219609 25.4178 -0.33758 40.417 9.74361 42.6276H9.74311C9.81983 42.6447 9.89755 42.6532 9.97578 42.6532C10.5259 42.6522 10.9872 42.2375 11.0459 41.6904C11.105 41.1433 10.743 40.6399 10.2054 40.5215C1.67221 38.6526 2.22138 24.3198 2.22588 24.1747C2.22838 24.1326 2.22838 24.0905 2.22588 24.0483C1.93252 21.5812 2.55833 19.0921 3.98341 17.0571C4.8123 15.8551 6.05044 14.9961 7.46651 14.6401C13.339 13.6222 17.4805 11.4519 19.7746 8.18897C21.2875 6.07791 21.9314 3.46581 21.5718 0.893375C21.469 0.30668 20.9099 -0.0854558 20.3237 0.0173439C19.737 0.120141 19.3449 0.678751 19.4477 1.26546C19.7039 3.27229 19.1904 5.30158 18.0095 6.94486C16.0558 9.7259 12.3838 11.5988 7.09848 12.5155L7.09852 12.5149Z" fill="#9FC63B"/>
<path d="M33.448 0.0156977C32.8618 -0.0845924 32.3047 0.306035 32.1994 0.891228C31.8393 3.46366 32.4832 6.07524 33.9966 8.1858C36.2907 11.4503 40.4327 13.621 46.3062 14.639C47.7935 14.8963 49.7262 15.7247 50.5409 16.8088C51.5408 18.1396 52.2424 21.0676 51.5739 23.8747C51.5654 23.9098 51.5584 23.9454 51.5539 23.981C51.5373 24.1059 49.8284 36.5433 46.1428 41.4921V41.4926C45.7867 41.97 45.8855 42.646 46.3629 43.0015C46.8408 43.3575 47.5162 43.2587 47.8723 42.7814C51.8047 37.5047 53.5422 25.3575 53.6845 24.3203C54.5305 20.6928 53.5452 17.2157 52.2649 15.5118C50.9712 13.7864 48.4438 12.8195 46.6747 12.5132C41.3854 11.5966 37.7138 9.7232 35.7616 6.9446L35.7611 6.9451C34.5807 5.30234 34.0667 3.27305 34.3235 1.26622C34.3736 0.983904 34.3094 0.693566 34.1455 0.458878C33.981 0.224202 33.7303 0.0647395 33.448 0.0150983L33.448 0.0156977Z" fill="#9FC63B"/>
</svg>
