<svg width="48" height="48" viewBox="0 0 48 48" fill="none" xmlns="http://www.w3.org/2000/svg">
<path d="M47.3737 30.451C46.1214 19.4335 38.6655 9.9938 33.4399 9.9938C29.7902 9.9938 28.4866 14.12 28.0198 17.1234C25.1171 13.4694 26.1247 4.62706 26.8584 1.16012C26.9685 0.641547 26.6373 0.131983 26.1187 0.021842C25.6001 -0.0878715 25.091 0.24298 24.9808 0.761552C24.8514 1.37012 21.9646 15.3611 27.7772 19.5489C27.7618 19.8952 27.7601 20.1236 27.7601 20.1793V20.1797C27.7537 20.6434 27.7061 21.1054 27.6187 21.561C26.8717 20.229 25.5199 19.347 23.9998 19.1997C22.4798 19.3471 21.128 20.2291 20.381 21.561C20.2936 21.1055 20.2465 20.6435 20.2396 20.1793C20.2396 20.1129 20.2379 19.8069 20.2122 19.3419C23.9515 13.3933 21.2159 1.26439 21.0959 0.74435C20.9767 0.227501 20.4612 -0.0943549 19.9443 0.0247829C19.4275 0.144349 19.1056 0.659925 19.2247 1.17634C19.2483 1.27791 21.1906 9.86344 19.6923 15.6508C19.0465 12.9294 17.6381 9.99334 14.5598 9.99334C9.33419 9.99334 1.87789 19.4334 0.626051 30.4505C-0.344241 38.9841 -0.416236 44.3764 2.0858 46.6881C3.30209 47.7171 4.94956 48.0766 6.48381 47.6477C9.19024 47.1188 9.93509 47.3618 10.7228 47.6181H10.7224C11.4416 47.8739 12.1993 48.0029 12.9626 48C13.9586 47.9768 14.9503 47.8585 15.924 47.6477C21.402 46.5767 20.8795 41.361 20.46 37.1705C20.3464 36.0399 20.2397 34.9728 20.2397 34.0196C20.1416 32.7652 20.34 31.5052 20.82 30.342C21.2704 29.3229 21.4757 28.2125 21.42 27.0999C21.3999 26.1789 21.2721 25.2635 21.0403 24.3725C21.0446 24.3622 21.0523 24.3549 21.0562 24.3447C21.4616 23.293 22.7147 21.1196 24 21.1196C25.38 21.1196 26.619 23.5089 26.9443 24.3459C26.9482 24.3553 26.9563 24.3613 26.9602 24.3707C26.7279 25.2626 26.6006 26.1785 26.58 27.0998C26.5243 28.2124 26.73 29.3229 27.18 30.342C27.66 31.5052 27.8589 32.7651 27.7603 34.0196C27.7603 34.9723 27.6536 36.0398 27.54 37.1704C27.1205 41.3614 26.598 46.5766 32.0761 47.6476C33.0498 47.8585 34.041 47.9763 35.037 47.9999C35.8003 48.0029 36.5584 47.8739 37.2776 47.6181C38.0658 47.3618 38.8119 47.1188 41.5167 47.6476H41.5162C43.0505 48.0775 44.6984 47.7183 45.9142 46.6881C48.4163 44.3773 48.3442 38.9845 47.374 30.4505L47.3737 30.451ZM15.5554 45.7637C12.8512 46.293 12.1067 46.0504 11.3173 45.7928C10.5981 45.537 9.84039 45.408 9.07755 45.411C8.08112 45.4341 7.08942 45.5524 6.11526 45.7637C5.18183 46.0607 4.1618 45.879 3.38831 45.2777C1.38734 43.4297 1.79493 37.164 2.53374 30.6682C3.7102 20.3162 10.6522 11.9138 14.5595 11.9138C17.4768 11.9138 18.1313 17.1364 18.277 19.2761C16.8567 18.0029 15.5191 16.4767 15.5191 15.5668C15.5191 15.0367 15.0897 14.6073 14.5595 14.6073C14.0294 14.6073 13.5995 15.0367 13.5995 15.5668C13.5995 18.0495 17.3122 21.0521 18.4985 21.9482C18.6172 22.6026 18.7783 23.2463 18.9399 23.8776L18.9395 23.8781C19.2575 24.925 19.4456 26.0072 19.4996 27.1C19.5536 27.9593 19.398 28.8194 19.0466 29.6054C18.6288 30.5684 18.3973 31.6017 18.3648 32.6509C18.3412 32.7194 18.3258 32.7901 18.3198 32.8621C18.2413 34.4469 17.6979 35.9731 16.7572 37.2507C15.8165 38.5283 14.52 39.4998 13.0299 40.045C12.7925 40.1375 12.6013 40.3205 12.4989 40.5537C12.3965 40.7872 12.3913 41.0517 12.4839 41.2891C12.5769 41.5265 12.7603 41.7172 12.9939 41.8192C13.2275 41.9212 13.4923 41.9259 13.7293 41.8325C15.7248 41.0975 17.4339 39.7454 18.6078 37.9724C19.0222 42.3806 18.9103 45.1076 15.5551 45.7633L15.5554 45.7637ZM44.6111 45.2777H44.6115C43.8379 45.879 42.8179 46.0607 41.8845 45.7637C38.9175 45.1825 37.8573 45.4097 36.6825 45.7928C35.8935 46.0508 35.1495 46.293 32.444 45.7637C29.0887 45.108 28.9772 42.381 29.3913 37.9727H29.3917C30.5655 39.7457 32.2747 41.0978 34.2701 41.8329C34.7634 42.0249 35.3193 41.781 35.5117 41.2882C35.7045 40.7953 35.4619 40.239 34.9695 40.0453C33.4798 39.5006 32.1833 38.5286 31.2426 37.2515C30.3019 35.9739 29.7581 34.4477 29.6796 32.8638C29.6741 32.7871 29.6586 32.7112 29.6338 32.6388C29.6004 31.594 29.3694 30.565 28.9528 29.6058C28.6014 28.8198 28.4458 27.9596 28.4998 27.1004C28.5538 26.0071 28.7419 24.9254 29.0599 23.8784C29.2215 23.2471 29.3822 22.6034 29.5014 21.949C30.6876 21.0529 34.4003 18.0503 34.4003 15.5676L34.3999 15.5672C34.3999 15.0371 33.97 14.6076 33.4399 14.6076C32.9098 14.6076 32.4803 15.0371 32.4803 15.5672C32.4803 16.477 31.1428 18.0032 29.7224 19.2765C29.8681 17.1366 30.523 11.9142 33.4399 11.9142C37.3471 11.9142 44.2896 20.3158 45.4657 30.6686C46.2045 37.1644 46.6121 43.4305 44.6111 45.278L44.6111 45.2777Z" fill="#9FC63B"/>
</svg>
