<svg width="20" height="20" viewBox="0 0 20 20" fill="none" xmlns="http://www.w3.org/2000/svg">
<path d="M0 20L1.43611 14.6692C0.277924 12.5926 -0.0900445 10.1694 0.399731 7.84424C0.889507 5.51906 2.20417 3.4479 4.10249 2.01082C6.0008 0.573734 8.35543 -0.132879 10.7343 0.0206447C13.1132 0.174168 15.3567 1.17753 17.0532 2.84661C18.7497 4.5157 19.7854 6.73854 19.9702 9.10725C20.155 11.476 19.4765 13.8316 18.0593 15.742C16.6421 17.6524 14.5811 18.9894 12.2547 19.5076C9.92822 20.0258 7.4923 19.6904 5.39391 18.5631L0 20ZM5.65399 16.5683L5.98758 16.7655C7.50748 17.6633 9.28272 18.0349 11.0366 17.8222C12.7905 17.6096 14.4246 16.8246 15.6842 15.5898C16.9437 14.3549 17.7581 12.7394 18.0002 10.9951C18.2424 9.2508 17.8988 7.47565 17.0231 5.94627C16.1473 4.4169 14.7885 3.21922 13.1584 2.53987C11.5284 1.86052 9.7186 1.73766 8.01116 2.19045C6.30373 2.64323 4.79454 3.64622 3.71877 5.04311C2.643 6.44 2.06108 8.15233 2.06371 9.91325C2.06228 11.3733 2.46744 12.8052 3.23408 14.0494L3.44328 14.3931L2.64041 17.3684L5.65399 16.5683Z" fill="#00D95F"/>
<path fill-rule="evenodd" clip-rule="evenodd" d="M13.8185 11.6224C13.6145 11.4451 13.3757 11.3202 13.1202 11.2574C12.8647 11.1946 12.5992 11.1955 12.3441 11.26C11.9608 11.4317 11.7131 12.0802 11.4654 12.4045C11.4131 12.4822 11.3364 12.5367 11.2495 12.5578C11.1627 12.5789 11.0716 12.565 10.9936 12.5189C9.59012 11.9263 8.41374 10.8396 7.6555 9.4353C7.59083 9.34767 7.56022 9.2364 7.57012 9.12493C7.58002 9.01345 7.62966 8.91047 7.70858 8.83766C7.98485 8.54281 8.18769 8.17763 8.29834 7.77588C8.32291 7.33274 8.22874 6.89133 8.02705 6.50429C7.87113 5.96167 7.57439 5.47851 7.1719 5.1119C6.9643 5.01124 6.73412 4.97749 6.50913 5.01472C6.28414 5.05195 6.07394 5.15857 5.90391 5.32171C5.60871 5.59627 5.37441 5.93872 5.21824 6.32384C5.06208 6.70896 4.98804 7.12694 5.00157 7.54699C5.00248 7.78288 5.03021 8.01776 5.08414 8.24637C5.22108 8.79563 5.43169 9.3204 5.70929 9.80407C5.90957 10.1746 6.12809 10.5332 6.36392 10.8786C7.13035 12.0128 8.09376 12.9758 9.20068 13.7142C9.75614 14.0894 10.3498 14.3945 10.97 14.6234C11.6142 14.9382 12.3254 15.059 13.0282 14.9731C13.4287 14.9077 13.8081 14.7373 14.133 14.4768C14.458 14.2162 14.7186 13.8736 14.8919 13.479C14.9937 13.2406 15.0246 12.9741 14.9803 12.716C14.8742 12.1883 14.2196 11.8768 13.8185 11.6224Z" fill="#00D95F"/>
</svg>
