<svg width="101" height="127" viewBox="0 0 101 127" fill="none" xmlns="http://www.w3.org/2000/svg">
<path fill-rule="evenodd" clip-rule="evenodd" d="M9.20873 39.6475C9.67204 39.6747 11.4571 39.7428 11.7433 39.7428C12.0567 39.7428 13.6238 39.6883 14.4686 39.6475L14.4277 40.015C14.1824 40.0422 13.2422 40.1783 13.1059 40.2464C14.0734 43.3904 16.6761 50.4407 17.3302 51.407C17.3574 51.4342 18.7201 51.6384 18.8291 51.6384L18.8973 52.0195C18.3522 51.965 17.2076 51.9514 15.8994 51.9514C15.2726 51.9514 13.5693 51.9787 13.0242 52.0195L13.1332 51.6384C14.0462 51.5976 14.7548 51.407 14.9047 51.407C14.7411 50.849 13.324 47.0789 13.0651 46.5072C12.5609 46.5072 10.8439 46.3303 9.03159 46.48C8.84081 46.8611 7.80519 50.7809 7.80519 51.407C8.35026 51.584 9.16785 51.6384 9.27686 51.6384L9.37225 52.0195C8.90895 51.965 7.76431 51.9514 7.05573 51.9514C6.00648 51.9514 4.90272 51.9787 4.65744 52.0195L4.72557 51.6656C4.87547 51.6384 6.06098 51.4751 6.23813 51.407C6.55154 50.9851 10.2035 41.4033 10.5986 40.2464C10.5305 40.1783 9.59028 40.0422 9.23599 40.015L9.20873 39.6475ZM12.9288 45.7722C12.9288 45.5953 11.3617 41.1719 11.1437 40.5322H11.1301C10.9257 41.0766 9.345 45.3639 9.24961 45.677C10.3125 45.7178 12.7517 45.7722 12.9288 45.7722ZM19.7694 42.9413C19.8648 41.8252 19.9874 40.0014 19.9874 38.5042C20.1645 38.545 20.3689 38.5723 20.4098 38.5723C20.4507 39.1711 20.4779 39.3208 20.5188 39.4297C22.0178 39.5386 24.3752 39.9197 26.1466 39.9197C27.8908 39.9197 30.2482 39.8517 31.7472 39.7428C31.788 39.6475 31.8153 39.1711 31.8562 38.5723C31.8834 38.5723 32.1015 38.545 32.2786 38.5042C32.2786 40.0014 32.4012 41.8252 32.4966 42.9413L32.1287 42.8188C32.047 42.2607 31.8426 41.3352 31.7472 41.1719C30.8342 40.6002 28.7493 40.4505 27.2368 40.4505C27.1959 41.0494 27.155 43.1862 27.155 45.6089C27.155 47.46 27.1959 50.849 27.2368 51.407C27.7546 51.5023 28.7493 51.5976 29.4579 51.6656L29.5669 52.0195C29.0218 51.9787 26.828 51.9514 26.1194 51.9514C25.4244 51.9514 23.2442 51.9787 22.6991 52.0195L22.8081 51.6656C23.5167 51.5976 24.5114 51.5023 25.0292 51.407C25.0701 50.849 25.111 47.46 25.111 45.6089C25.111 43.1862 25.0565 41.0494 25.0292 40.4505C23.5167 40.4505 21.4182 40.6002 20.5188 41.1719C20.4234 41.3352 20.219 42.2607 20.1237 42.8188L19.7694 42.9413ZM37.4022 39.6475C37.8792 39.6747 39.6642 39.7428 39.9368 39.7428C40.2502 39.7428 41.8309 39.6883 42.6621 39.6475L42.6348 40.0014C42.3896 40.0422 41.4357 40.1783 41.2994 40.2464C42.2805 43.3904 44.8832 50.4407 45.5237 51.407C45.5646 51.4342 46.9272 51.6248 47.0362 51.6248L47.1044 52.0195C46.5593 51.965 45.401 51.9514 44.0929 51.9514C43.4661 51.9514 41.7764 51.9787 41.2313 52.0195L41.3403 51.6248C42.2397 51.5976 42.9619 51.407 43.0981 51.407C42.5395 49.801 40.1684 42.9957 39.3508 40.5322C37.7565 44.3023 36.2303 49.4879 36.0123 51.407C36.5437 51.584 37.375 51.6248 37.4704 51.6248L37.5794 52.0195C37.1024 51.965 35.9714 51.9514 35.2492 51.9514C34.2136 51.9514 33.1098 51.9787 32.8645 52.0195L32.9327 51.6656C33.0689 51.6248 34.2545 51.4751 34.4316 51.407C34.745 50.9851 38.397 41.4033 38.8058 40.2464C38.7376 40.1783 37.7838 40.0422 37.4431 40.0014L37.4022 39.6475ZM53.0183 39.6475C53.4953 39.6883 55.2667 39.7564 55.5529 39.7564C55.8663 39.7564 57.4333 39.7019 58.2782 39.6475L58.2373 40.015C57.992 40.0558 57.0518 40.1919 56.9155 40.26C57.8967 43.404 60.4993 50.4543 61.1398 51.4206C61.1807 51.4478 62.5433 51.6384 62.6523 51.6384L62.7205 52.0331C62.1754 51.9787 61.0172 51.9514 59.709 51.9514C59.0822 51.9514 57.3925 51.9923 56.8474 52.0331L56.9564 51.6384C57.8558 51.6112 58.578 51.4206 58.7143 51.4206C58.5507 50.8626 57.1472 47.0925 56.8747 46.5072C56.3705 46.5072 54.6671 46.3439 52.8412 46.4936C52.6504 46.8747 51.6148 50.7945 51.6148 51.4206C52.1599 51.5976 52.9774 51.6384 53.0865 51.6384L53.1955 52.0331C52.7185 51.9787 51.5875 51.9514 50.8653 51.9514C49.8161 51.9514 48.7259 51.9923 48.4807 52.0331L48.5488 51.6792C48.6851 51.6384 49.8706 51.4887 50.0477 51.4206C50.3611 50.9987 54.0131 41.4169 54.4219 40.26C54.3401 40.1919 53.3999 40.0558 53.0592 40.015L53.0183 39.6475ZM56.7384 45.7722C56.7384 45.6089 55.1577 41.1855 54.9533 40.5458H54.9397C54.7216 41.0902 53.1546 45.3775 53.0456 45.6906C54.1085 45.7314 56.5612 45.7722 56.7384 45.7722ZM76.0473 45.187C76.0473 43.2679 76.0064 41.4441 75.9383 40.3008C75.4886 40.2328 74.9436 40.083 74.2213 40.015L74.1123 39.6475C74.78 39.7019 76.3744 39.7564 77.0829 39.7564C77.5326 39.7564 79.1814 39.7019 80.0536 39.6475L79.9173 40.0558C79.4131 40.083 78.4456 40.1919 78.1594 40.2872C78.1049 40.6955 78.0913 43.5401 78.0913 45.6225C78.0913 47.4736 78.1049 50.8762 78.1322 51.4206C78.65 51.5159 79.2359 51.6112 79.9582 51.6792L80.0536 52.0331C79.5221 51.9923 77.8188 51.9514 77.1238 51.9514C76.388 51.9514 74.562 51.9787 74.1123 52.0331L74.1941 51.6792C74.7664 51.6112 75.366 51.5567 75.8974 51.4478C75.9928 50.6993 76.0473 49.0252 76.0473 47.46V46.2894C75.0253 46.2894 69.016 46.5344 68.8116 46.5753V47.46C68.8116 49.0252 68.8661 50.6993 68.9479 51.4478C69.4929 51.5567 70.0789 51.6112 70.6648 51.6792L70.7329 52.0331C70.1742 51.9787 68.4573 51.9514 67.7215 51.9514C67.0265 51.9514 65.3232 51.9923 64.7917 52.0331L64.8871 51.6792C65.6093 51.6112 66.168 51.5159 66.6722 51.4206C66.7267 50.8626 66.7676 47.4736 66.7676 45.6225C66.7676 43.5401 66.7131 40.8861 66.6995 40.3008C66.3588 40.1919 65.4322 40.083 64.928 40.0558L64.7917 39.6475C65.6775 39.6883 67.3263 39.7564 67.7623 39.7564C68.5118 39.7564 70.3786 39.6883 70.7329 39.6475L70.6239 40.015C69.9017 40.083 69.3703 40.2328 68.907 40.3008C68.8388 41.4441 68.8116 43.0229 68.8116 45.1734C68.8116 45.1734 75.2025 45.2414 76.0473 45.187ZM83.0514 42.9549C83.1468 41.8388 83.2694 40.015 83.2694 38.5178C83.4466 38.5587 83.651 38.5859 83.6919 38.5859C83.7327 39.1847 83.76 39.4433 83.8009 39.5522C85.2998 39.6475 87.6572 39.9333 89.4287 39.9333C91.1729 39.9333 93.5303 39.8653 95.0292 39.7564C95.0701 39.6475 95.0973 39.1847 95.1382 38.5859C95.1791 38.5859 95.3835 38.5587 95.5606 38.5178C95.5606 40.015 95.6833 41.8388 95.7787 42.9549L95.4108 42.8324C95.329 42.2743 95.1246 41.3488 95.0292 41.1855C94.1299 40.6138 92.0313 40.4505 90.5188 40.4505C90.4779 41.063 90.437 43.1999 90.437 45.6225C90.437 47.4736 90.4779 50.8626 90.5188 51.4206C91.0366 51.5159 92.0313 51.6112 92.7399 51.6792L92.849 52.0331C92.3039 51.9923 90.11 51.9514 89.4014 51.9514C88.7065 51.9514 86.5262 51.9923 85.9811 52.0331L86.0901 51.6792C86.7987 51.6112 87.7935 51.5159 88.3113 51.4206C88.3522 50.8626 88.393 47.4736 88.393 45.6225C88.393 43.1999 88.3385 41.063 88.3113 40.4505C86.7987 40.4505 84.7002 40.6138 83.8009 41.1855C83.7055 41.3488 83.5011 42.2743 83.4193 42.8324L83.0514 42.9549Z" fill="#009BBF"/>
<path fill-rule="evenodd" clip-rule="evenodd" d="M83.5692 10.6707C79.5221 7.64913 75.3114 3.1032 68.1575 0.0136103C73.3901 0.0408314 81.6342 3.90623 83.5692 10.6707ZM29.3761 89.9113C24.5523 90.7279 20.8595 89.1355 17.2757 86.0867C15.6677 84.6168 14.5367 83.3102 13.3648 81.9899C15.8176 82.0988 19.1016 82.793 21.9905 83.6776C23.6257 84.1812 25.2064 84.7393 26.6372 85.5559C28.6539 86.6992 33.8593 88.5502 36.8162 88.3188C35.2219 89.2444 31.2021 89.6118 29.3761 89.9113ZM64.0422 88.3188C66.9856 88.5502 72.2046 86.6992 74.2077 85.5559C75.6385 84.7393 77.2192 84.1812 78.8544 83.6776C81.7432 82.793 85.0272 82.0988 87.48 81.9899C86.3218 83.3102 85.1771 84.6168 83.5692 86.0867C79.9854 89.1355 76.2926 90.7279 71.4687 89.9113C69.6428 89.6118 65.6229 89.2444 64.0422 88.3188ZM87.371 63.8471C87.0712 65.1401 86.9213 66.0792 86.9077 67.0728C86.8941 68.951 87.1257 70.4346 86.9486 72.0951C86.7987 73.4289 86.3626 74.5858 85.7494 75.661C85.1907 76.641 84.6457 77.3896 84.0189 78.0429C83.8553 78.2062 83.6782 78.3695 83.4874 78.5329C84.7683 77.5257 85.8993 76.4641 86.4989 75.7291C87.4528 74.5722 88.611 73.6195 89.8374 72.6803C91.9904 71.0198 94.5386 69.4138 96.569 68.5836C96.0103 70.1079 95.4516 71.6051 94.5659 73.4017C92.5082 77.1718 89.8919 79.6898 85.5587 80.4247C83.9235 80.6969 80.4214 81.568 78.7999 81.2277C79.1269 81.137 79.4721 81.01 79.8355 80.8467C79.4948 80.9828 79.1678 81.1053 78.8544 81.1869C79.5084 80.2614 79.9854 79.4448 80.3806 78.6145C80.9801 77.3351 81.3344 76.151 81.5797 74.8852C81.7568 73.9597 81.9476 73.1431 82.1656 72.3673C83.1195 68.9646 85.218 66.5556 87.371 63.8471ZM78.9089 11.637C79.7674 12.0726 80.3942 12.3584 81.0891 12.5625C82.4109 12.93 83.501 13.0389 84.6321 13.4881C85.545 13.8419 86.2809 14.3591 86.9213 14.9988C87.5073 15.5705 87.9297 16.1013 88.2704 16.6593C88.3521 16.809 88.4475 16.9587 88.5293 17.1357C88.0523 16.0332 87.5209 15.0397 87.1121 14.4816C86.4853 13.5969 86.022 12.6034 85.5859 11.569C84.8228 9.73154 84.1824 7.64913 83.978 6.05669C84.9455 6.75083 85.8993 7.41775 86.9895 8.3841C89.2651 10.5346 90.5324 12.8484 90.2326 16.0196C90.1236 17.2173 90.0827 19.8442 89.5376 20.933C89.5376 20.6744 89.5104 20.4022 89.4559 20.13C89.4968 20.3886 89.5104 20.6472 89.5104 20.8786C88.979 20.2525 88.502 19.7625 87.9978 19.327C87.2075 18.6601 86.4308 18.1837 85.5995 17.7754C84.9863 17.4759 84.4413 17.2037 83.9235 16.9043C81.716 15.5705 80.4078 13.6514 78.9089 11.637ZM92.3039 57.9265C92.5764 58.6751 92.8353 59.3964 92.9988 60.1858C93.2305 61.3427 93.1759 62.4452 92.9443 63.534C92.7399 64.514 92.4946 65.3034 92.1267 66.0248C92.0359 66.2153 91.9314 66.4104 91.8133 66.61C92.6309 65.3987 93.2986 64.1737 93.612 63.3843C94.1026 62.1458 94.8248 61.0161 95.6151 59.8864C96.9914 57.8857 98.722 55.8305 100.221 54.5647C100.153 56.0074 100.098 57.4365 99.8257 59.2059C99.1172 62.976 97.5637 65.8342 94.1026 67.6308C92.7944 68.3113 90.0555 70.0127 88.5702 70.176C88.8291 69.999 89.088 69.8085 89.3469 69.5635C89.1016 69.7813 88.8427 69.9582 88.5974 70.1215C88.9108 69.1416 89.088 68.3386 89.197 67.5083C89.3605 66.2698 89.3332 65.1537 89.197 64.0104C89.1016 63.1802 89.0335 62.4452 89.0062 61.7238C88.9517 60.4308 89.1152 59.2331 89.4014 58.0762H90.8458C91.3363 58.0762 91.8269 58.0218 92.3039 57.9265ZM98.4358 43.649C98.8583 42.6691 99.3215 41.7708 99.7849 41.0358C100.126 42.3424 100.48 43.6218 100.725 45.2551C101.134 48.7938 100.562 51.7473 97.9861 54.2925C97.0187 55.2588 95.0701 57.5182 93.8028 58.0626C93.9799 57.8448 94.1571 57.5862 94.3342 57.3004C94.1571 57.559 93.9936 57.804 93.8164 58.0082C93.8073 57.8176 93.8028 57.6407 93.8028 57.4773C96.5145 56.3068 98.4358 53.5983 98.4358 50.4679V43.649ZM95.9967 34.9247C96.0148 34.7069 96.033 34.4891 96.0512 34.2714C96.2556 32.0801 96.7052 29.6982 97.3184 28.0377C97.918 29.2082 98.5176 30.3515 99.0763 31.8623C100.166 35.088 100.248 37.9734 98.4358 40.8589V40.4914C98.4358 38.3001 97.4956 36.3129 95.9967 34.9247ZM85.5042 21.2461C86.24 21.8585 86.8123 22.2532 87.4528 22.5935C88.6792 23.206 89.7284 23.5326 90.7504 24.1859C91.568 24.7031 92.1948 25.3701 92.699 26.105C93.1623 26.7856 93.4757 27.3844 93.6938 28.0105C93.7483 28.1648 93.8028 28.3326 93.8573 28.5141C93.612 27.3436 93.2713 26.2684 92.9852 25.6423C92.5355 24.6487 92.2766 23.5871 92.0586 22.4846C91.677 20.5383 91.4454 18.3606 91.5544 16.7682C92.372 17.6257 93.1759 18.4695 94.048 19.6264C95.8604 22.1852 96.6644 24.7031 95.7514 27.7655C95.4107 28.9224 94.852 31.4812 94.1026 32.4339C94.1571 32.1889 94.1843 31.9303 94.1843 31.6445C94.1661 31.9077 94.1344 32.1572 94.0889 32.3931C93.6938 31.6581 93.3258 31.0865 92.9034 30.5693C92.263 29.7527 91.5953 29.1402 90.8458 28.5821C90.3144 28.1602 89.8374 27.7791 89.4014 27.3844C87.48 25.6695 86.5807 23.519 85.5042 21.2461ZM32.6874 0C25.5334 3.08959 21.3228 7.64913 17.2757 10.6571C19.2107 3.90623 27.4548 0.0408316 32.6874 0ZM15.2862 80.4111C10.9665 79.6761 8.33661 77.1718 6.29261 73.3881C5.39326 71.6051 4.83456 70.0943 4.27587 68.5699C6.30624 69.4138 8.85442 71.0198 11.0074 72.6667C12.2338 73.6058 13.3921 74.5722 14.3459 75.7155C14.9455 76.4504 16.0765 77.5257 17.3574 78.5329C17.1667 78.3695 16.9941 78.2017 16.8396 78.0293C16.1992 77.3896 15.6541 76.6274 15.0954 75.6474C14.4958 74.5858 14.0462 73.4153 13.8963 72.0951C13.7191 70.4346 13.9644 68.9374 13.9371 67.0728C13.9235 66.0656 13.76 65.1265 13.4738 63.8471C15.6268 66.5556 17.7253 68.951 18.6792 72.3673C18.9109 73.1431 19.088 73.9597 19.2652 74.8852C19.5104 76.1374 19.8647 77.3351 20.4643 78.6145C20.8595 79.4448 21.3364 80.2478 21.9905 81.1869C21.6725 81.0962 21.3455 80.9828 21.0094 80.8467C21.3727 81.01 21.7179 81.137 22.045 81.2277C20.4234 81.568 16.9214 80.6969 15.2862 80.4111ZM6.74229 67.6308C3.28113 65.8206 1.72769 62.976 1.01911 59.1923C0.746576 57.4365 0.692071 56.0074 0.623938 54.5511C2.12287 55.8169 3.85345 57.8857 5.22973 59.8864C6.02008 61.0161 6.74229 62.1458 7.23285 63.3843C7.54626 64.1737 8.21397 65.3851 9.03156 66.5964C8.91347 66.4059 8.80899 66.2153 8.71815 66.0248C8.35023 65.3034 8.10495 64.514 7.90055 63.534C7.6689 62.4452 7.61439 61.3427 7.84605 60.1722C8.00957 59.3828 8.26847 58.6751 8.54101 57.9265C9.0134 58.0263 9.49941 58.0762 9.99905 58.0762H11.4435C11.7296 59.2331 11.8795 60.4308 11.8386 61.7102C11.8114 62.4316 11.7433 63.1802 11.6479 64.0104C11.5116 65.1537 11.4844 66.2561 11.6479 67.5083C11.7569 68.325 11.9477 69.1416 12.2474 70.1079C12.0022 69.9582 11.7433 69.7677 11.498 69.5635C11.7569 69.7949 12.0158 69.999 12.2747 70.1624C10.803 70.0127 8.06407 68.3113 6.74229 67.6308ZM2.8587 54.2925C0.283271 51.7337 -0.289048 48.7938 0.119751 45.2551C0.378657 43.6218 0.719326 42.3424 1.05999 41.0358C1.5233 41.7708 1.9866 42.6691 2.40903 43.649V50.4679C2.40903 53.5983 4.33038 56.3068 7.04208 57.4637C7.04208 57.6361 7.04208 57.8176 7.04208 58.0082C6.8513 57.804 6.68778 57.559 6.52426 57.3004C6.68778 57.5862 6.86493 57.8448 7.04208 58.0626C5.78843 57.5182 3.82619 55.2588 2.8587 54.2925ZM2.40903 40.4914V40.8589C0.610312 37.9734 0.678443 35.088 1.76857 31.8623C2.34089 30.3515 2.92684 29.2082 3.52641 28.0377C4.1396 29.6982 4.58928 32.0801 4.79368 34.2714C4.80731 34.4891 4.83456 34.7069 4.84819 34.9247C3.34926 36.3129 2.40903 38.3001 2.40903 40.4914ZM5.09347 27.7655C4.18048 24.7031 4.98445 22.1852 6.7968 19.6264C7.6689 18.4695 8.4865 17.6257 9.29047 16.7682C9.39948 18.3606 9.16783 20.5383 8.78628 22.4846C8.55463 23.5871 8.30935 24.6487 7.85967 25.6423C7.57352 26.2684 7.23285 27.3436 6.98757 28.5141C7.04208 28.3372 7.09658 28.1602 7.15109 28.0105C7.36911 27.3844 7.69616 26.7856 8.14583 26.105C8.65002 25.3701 9.27684 24.7031 10.0944 24.1859C11.1164 23.5326 12.1657 23.206 13.3785 22.5935C14.0325 22.2532 14.6049 21.8585 15.3407 21.2461C14.2642 23.519 13.3648 25.6695 11.4571 27.3844C11.021 27.7791 10.5441 28.1602 9.99905 28.5821C9.24959 29.1402 8.58189 29.7527 7.94143 30.5693C7.51901 31.0865 7.15109 31.6581 6.75592 32.3931C6.70141 32.1572 6.66961 31.9077 6.66053 31.6445C6.66961 31.9349 6.69687 32.198 6.74229 32.4339C5.99283 31.4812 5.43413 28.9224 5.09347 27.7655ZM10.6122 16.0196C10.3125 12.8484 11.5797 10.5346 13.8554 8.3841C14.9455 7.41775 15.913 6.73722 16.8669 6.05669C16.6625 7.63552 16.022 9.73154 15.2589 11.5554C14.8229 12.5898 14.3732 13.5833 13.7327 14.468C13.3376 15.0397 12.7925 16.0332 12.3156 17.1357C12.4064 16.9633 12.4927 16.8045 12.5745 16.6593C12.9152 16.0877 13.3376 15.5705 13.9235 14.9852C14.564 14.3591 15.2998 13.8419 16.2128 13.4744C17.3438 13.0389 18.4339 12.93 19.7557 12.5625C20.4507 12.3584 21.0775 12.0726 21.936 11.637C20.437 13.6514 19.1289 15.5705 16.9214 16.8907C16.4172 17.1901 15.8721 17.4759 15.2589 17.7754C14.4141 18.1837 13.6374 18.6601 12.847 19.327C12.3428 19.7625 11.8659 20.2389 11.3345 20.8786C11.3345 20.6472 11.3481 20.4022 11.3753 20.1436C11.3345 20.4158 11.3072 20.688 11.3072 20.9194C10.7621 19.8442 10.7213 17.2173 10.6122 16.0196Z" fill="#9FC63B"/>
<path fill-rule="evenodd" clip-rule="evenodd" d="M53.9722 7.71719C59.1912 8.22078 64.0831 9.79961 68.4437 12.2495C67.1491 12.9981 65.8137 13.665 64.4238 14.2503C60.7991 11.4329 56.6566 9.29602 52.1598 8.00302C52.7594 7.88506 53.3635 7.78978 53.9722 7.71719ZM63.5381 14.6177C61.9029 15.2574 60.2132 15.7746 58.469 16.1693C56.4931 13.3792 54.2175 10.8748 51.7238 8.73798C56.0434 9.94932 60.036 11.9637 63.5381 14.6177ZM57.5424 16.3735C55.2395 16.8363 52.8548 17.0813 50.4293 17.0813C47.9765 17.0813 45.5782 16.8363 43.2753 16.3599C45.3465 13.5017 47.7448 10.9565 50.402 8.83326C53.0456 10.9565 55.4575 13.5017 57.5424 16.3735ZM42.335 16.1693C40.5636 15.761 38.8466 15.2166 37.1842 14.5633C40.7271 11.8956 44.7742 9.86766 49.1484 8.66993C46.6274 10.8204 44.3382 13.3384 42.335 16.1693ZM36.2985 14.1958C34.9494 13.6242 33.6549 12.9709 32.4012 12.2495C36.7209 9.82683 41.5856 8.2344 46.7637 7.7308C47.3451 7.80339 47.922 7.89413 48.4943 8.00302C44.0247 9.28241 39.8959 11.4057 36.2985 14.1958ZM69.2476 12.7259C76.8104 17.231 82.629 24.3765 85.4088 32.8831H77.2737C75.0526 25.6967 70.7738 19.4359 65.146 14.8355C66.5632 14.2094 67.9395 13.5017 69.2476 12.7259ZM77.2737 69.4002C76.1291 70.6115 74.9163 71.7412 73.6218 72.8028C72.8723 72.9253 72.0683 73.1431 71.278 73.4289C70.147 72.6395 68.9615 71.9181 67.7487 71.2785C71.4688 67.59 74.4394 63.0985 76.388 58.0762H81.5661C81.5252 58.3212 81.4843 58.4981 81.5116 58.7704C81.5933 59.3964 81.9613 60.077 82.3019 61.1522C81.7978 61.9144 81.4435 62.6085 81.1709 63.2482C79.8355 65.5076 78.432 66.2834 77.2737 69.4002ZM82.6426 58.0762H82.6971C82.6971 58.2259 82.6835 58.294 82.6562 58.1851L82.6426 58.0762ZM66.972 70.8837C65.1188 69.9446 63.1702 69.1552 61.1534 68.5427C62.9249 65.317 64.342 61.8055 65.3504 58.0762H75.5159C73.5809 62.9624 70.6375 67.3042 66.972 70.8837ZM65.841 32.8967C64.4919 26.9625 62.1209 21.5455 58.9732 16.9043C60.7991 16.4688 62.5842 15.8971 64.2875 15.203C69.9017 19.6809 74.1805 25.8192 76.4152 32.8967H65.841ZM60.3086 68.2977C58.7551 67.8622 57.1744 67.5355 55.5529 67.3042C55.7573 66.61 55.9208 65.9159 56.0707 65.0176C56.8474 60.5533 46.8455 57.069 45.8235 64.0512C45.6463 64.4051 45.8643 64.7726 45.8916 65.1129C45.6599 65.7117 44.8696 66.4331 44.6652 67.0456C44.6925 67.1408 44.8832 67.2497 45.074 67.345C43.5206 67.5764 41.9944 67.8894 40.5091 68.3114C38.7512 65.1673 37.3477 61.7375 36.3257 58.0762H64.4919C63.4699 61.7238 62.0664 65.1673 60.3086 68.2977ZM35.8215 32.8967C37.1978 27.0306 39.5825 21.668 42.7575 17.0949C45.2375 17.6257 47.7993 17.8979 50.4293 17.8979C53.0456 17.8979 55.5938 17.6257 58.0602 17.1085C61.2215 21.668 63.6198 27.0306 64.9961 32.8967H35.8215ZM39.6642 68.5563C37.6202 69.1824 35.6444 69.9854 33.7503 70.9518C30.0575 67.3586 27.1005 62.9896 25.1519 58.0762H35.4672C36.4756 61.8191 37.9064 65.3306 39.6642 68.5563ZM24.2389 32.8967C26.5009 25.792 30.7933 19.6264 36.4347 15.1486C38.1789 15.8563 39.9776 16.4416 41.8445 16.8907C38.6967 21.5319 36.3257 26.9625 34.9767 32.8967H24.2389ZM32.9736 71.3465C32.3558 71.6822 31.7472 72.0361 31.1476 72.4081C30.2074 72.2312 28.9946 72.2312 27.2504 72.5034C24.0072 67.0047 22.7808 67.345 18.6384 61.1658C18.9926 60.077 19.3469 59.3964 19.4287 58.7704C19.4696 58.4981 19.4151 58.3348 19.3878 58.0762H24.2525C26.2148 63.1257 29.2126 67.6444 32.9736 71.3465ZM18.2704 58.0762H18.3113L18.2841 58.1987C18.275 58.2169 18.2704 58.2305 18.2704 58.2395C18.2704 58.2033 18.2704 58.1488 18.2704 58.0762ZM15.4361 32.8967C18.2159 24.3765 24.0345 17.231 31.5973 12.7259C32.8691 13.4881 34.1909 14.1731 35.5626 14.7811C29.9076 19.395 25.6016 25.6695 23.3804 32.8967H15.4361ZM62.5842 75.5249C64.1922 74.4225 65.7047 73.2111 67.1083 71.8773C68.2256 72.458 69.3021 73.0977 70.3378 73.7964C68.3619 74.6266 66.4951 75.8924 65.3368 77.4576C64.4919 76.4913 63.5517 75.906 62.5842 75.5249ZM32.2105 72.7076C32.6647 72.4444 33.1235 72.1904 33.5868 71.9454C34.6406 72.9344 35.7443 73.8554 36.898 74.7083C36.3257 74.7355 35.8215 74.8308 35.3991 75.035C34.1455 74.0822 33.396 73.2112 32.2105 72.7076ZM34.3635 71.537C36.1894 70.6388 38.0835 69.8766 40.0594 69.2913C41.3131 71.469 42.7302 73.5106 44.2837 75.3888C42.4304 75.4569 40.2774 74.9533 38.4106 74.7764C36.9843 73.7873 35.6353 72.7076 34.3635 71.537ZM40.9179 69.0327C42.4032 68.638 43.9294 68.325 45.4828 68.1072C45.3329 68.7197 44.9514 69.4819 45.074 69.8766C45.6191 71.0743 47.1589 71.2512 47.4314 72.9662C47.554 73.2928 47.5268 73.6195 47.5268 73.9597C47.5268 74.0232 47.5222 74.0868 47.5132 74.1503L47.5404 74.1639C47.2134 74.4361 46.8455 74.6811 46.4639 74.8852C46.1233 75.0622 45.7417 75.1847 45.3329 75.2663C43.6977 73.3745 42.226 71.2785 40.9179 69.0327ZM55.2803 68.0936C56.8474 68.3113 58.3736 68.6244 59.8725 69.0327C58.8641 70.7476 57.7604 72.3809 56.5612 73.9053C55.8527 73.5378 55.2395 73.0206 54.7898 72.1904C54.381 71.469 54.5309 70.2304 54.817 69.4546C54.9806 68.9647 55.1441 68.5155 55.2803 68.0936ZM60.7174 69.2777C62.666 69.8493 64.5328 70.5979 66.3315 71.4826C64.8599 72.8437 63.2792 74.0822 61.6031 75.1847C60.145 74.7764 58.6734 74.6539 57.4197 74.2456C58.6052 72.6939 59.7226 71.0198 60.7174 69.2777Z" fill="#9FC63B"/>
<path fill-rule="evenodd" clip-rule="evenodd" d="M2.64069 40.5322V50.4271C2.64069 54.5783 6.03372 57.9673 10.1898 57.9673H13.8554C13.8554 58.1579 13.869 58.3348 13.8963 58.5253H10.1898C7.95508 58.5253 5.92471 57.6134 4.45303 56.1435C2.99498 54.6736 2.082 52.6456 2.082 50.4271V40.5322C2.082 38.3137 2.99498 36.2857 4.45303 34.8158C5.92471 33.3594 7.95508 32.4475 10.1898 32.4475H90.655C92.8898 32.4475 94.9202 33.3594 96.3782 34.8158C97.8499 36.2857 98.7629 38.3137 98.7629 40.5322V50.4271C98.7629 52.6456 97.8499 54.6736 96.3782 56.1435C94.9202 57.6134 92.8898 58.5253 90.655 58.5253H86.935C86.9486 58.3348 86.9759 58.1443 86.9759 57.9673H90.655C94.8112 57.9673 98.2178 54.5783 98.2178 50.4271V40.5322C98.2178 36.3946 94.8112 32.992 90.655 32.992H10.1898C6.03372 32.992 2.64069 36.3946 2.64069 40.5322ZM82.6562 58.1851C82.6426 58.117 82.629 58.049 82.6153 57.9673H82.6971C82.6971 58.1851 82.6971 58.3212 82.6562 58.1851ZM81.498 58.5253H19.4559C19.4423 58.3484 19.4014 58.1851 19.3742 57.9673H81.5797C81.5525 58.1851 81.5116 58.3484 81.498 58.5253ZM18.284 58.1851C18.284 58.2032 18.284 58.2168 18.284 58.2259C18.284 58.1715 18.2704 58.0898 18.2568 57.9673H18.3249C18.3249 58.049 18.3113 58.117 18.284 58.1851Z" fill="#B0C90B"/>
<path fill-rule="evenodd" clip-rule="evenodd" d="M81.1709 63.2482C81.4434 62.6085 81.7977 61.9144 82.3019 61.1522C81.9612 60.0769 81.5933 59.3964 81.5116 58.7703C81.4434 58.3076 81.6478 58.1306 81.5797 57.3412C81.5252 56.8104 81.0755 55.8441 81.4298 55.8168C82.5608 55.7352 82.4518 57.2323 82.6562 58.1851C82.7243 58.4301 82.6562 57.7087 82.7652 57.1915C83.1604 55.3269 87.1257 56.334 87.0031 57.5862C86.9486 59.41 86.3763 61.4108 85.2589 62.5268C85.1499 63.1938 85 63.8471 84.8092 64.4867C83.8145 69.0871 82.3973 72.8981 79.4131 76.6818C75.7202 79.8531 69.4111 85.202 65.2005 86.0731L53.8904 97.4651C58.8914 102.528 51.3695 106.87 49.2574 110.068C50.0886 109.837 50.9334 109.211 51.7646 108.98C52.4051 114.124 50.7154 119.201 48.2626 124.223C48.7123 124.264 49.0938 124.251 49.3391 124.128C57.9511 119.827 62.5161 124.237 68.3074 124.809L71.823 122.291C73.4991 125.095 76.1699 126.306 79.1542 127H45.2239V126.728C40.6998 118.385 36.9252 107.741 45.401 96.2129C42.1851 92.1978 39.6097 87.8016 37.9473 82.8746L41.3539 80.3158L35.8079 82.861C32.701 82.2621 27.9998 80.6152 25.9831 77.4168C22.2766 78.0973 17.1939 70.802 15.6813 62.5268C14.5776 61.4108 13.8963 59.6822 13.8418 57.8584C13.6919 56.4157 17.8207 55.7488 18.2295 57.7359C18.2704 57.9809 18.284 58.1442 18.2704 58.2259C18.2795 58.2168 18.284 58.2032 18.284 58.1851C18.5021 57.2323 18.393 55.7352 19.5241 55.8168C19.8783 55.8441 19.415 56.824 19.3742 57.3412C19.306 58.1306 19.4968 58.3076 19.4423 58.7703C19.3605 59.3964 18.9926 60.0769 18.6383 61.1522C22.7808 67.3314 24.0072 66.9911 27.264 72.4897C32.4693 71.7139 33.028 73.2111 35.4127 75.0349C37.8927 73.8236 43.5069 76.4232 46.4775 74.8852C46.8591 74.6811 47.227 74.4224 47.554 74.1502H47.5268C47.5359 74.0867 47.5404 74.0232 47.5404 73.9597C47.5404 73.6194 47.554 73.2792 47.445 72.9525C47.1725 71.2512 45.619 71.0743 45.0876 69.8765C44.9104 69.3321 45.6735 68.1344 45.5236 67.5491C45.5236 67.5219 44.7333 67.2497 44.6515 67.0319C44.8559 66.4194 45.6463 65.7117 45.8916 65.1128C45.8507 64.759 45.6463 64.3915 45.8234 64.0512C46.8318 57.0554 56.8474 60.5397 56.057 65.0176C55.7709 66.7597 55.3893 67.7805 54.8306 69.441C54.5445 70.2304 54.3946 71.469 54.7898 72.1903C56.8201 75.8652 61.9029 73.5378 65.3504 77.444C67.7487 74.2183 73.213 72.2448 76.3471 72.6803C77.6416 66.61 79.4676 66.1336 81.1709 63.2482ZM42.7847 97.4651C40.8088 100.405 39.5416 103.685 39.0237 107.469C37.3477 106.217 35.9441 105.74 34.4997 105.89C38.138 107.823 38.0971 114.832 39.8959 119.296L41.6401 122.304C40.6453 123.271 40.5772 124.4 40.9315 125.598L40.877 126.905H35.8079L37.92 124.904L38.0835 121.107C35.9714 114.846 29.9348 110.191 25.7514 104.379C32.6329 98.8125 33.9138 94.9744 42.7847 97.4651ZM53.3453 77.512C54.2447 82.6977 52.0508 87.3389 53.3045 93.763C52.6095 88.4141 54.7216 82.7113 53.3453 77.512Z" fill="#006282"/>
</svg>
